<svg width="23" height="21" viewBox="0 0 23 21" fill="none" xmlns="http://www.w3.org/2000/svg">
<g clip-path="url(#clip0_40_5916)">
<path d="M21.537 10.0856L11.9537 1.33564C11.834 1.227 11.6721 1.16602 11.5033 1.16602C11.3345 1.16602 11.1726 1.227 11.0529 1.33564L1.46954 10.0856C1.36488 10.1972 1.31018 10.3408 1.31639 10.4876C1.32261 10.6344 1.38926 10.7737 1.50304 10.8776C1.61683 10.9814 1.76936 11.0423 1.93015 11.048C2.09094 11.0536 2.24816 11.0037 2.37038 10.9081L11.5001 2.57231L20.6298 10.914C20.752 11.0095 20.9093 11.0595 21.07 11.0538C21.2308 11.0481 21.3834 10.9873 21.4972 10.8834C21.6109 10.7795 21.6776 10.6402 21.6838 10.4934C21.69 10.3466 21.6353 10.2031 21.5307 10.0915L21.537 10.0856Z" fill="white" fill-opacity="0.9"/>
<path d="M17.8888 18.6665H14.6944V12.8332H8.30547V18.6665H5.11103V10.4999L3.83325 11.6665V18.6665C3.83325 18.9759 3.96787 19.2727 4.2075 19.4915C4.44713 19.7103 4.77214 19.8332 5.11103 19.8332H9.58325V13.9999H13.4166V19.8332H17.8888C18.2277 19.8332 18.5527 19.7103 18.7923 19.4915C19.032 19.2727 19.1666 18.9759 19.1666 18.6665V11.5265L17.8888 10.3599V18.6665Z" fill="white" fill-opacity="0.9"/>
</g>
<defs>
<clipPath id="clip0_40_5916">
<rect width="23" height="21" fill="white"/>
</clipPath>
</defs>
</svg>
