<svg width="23" height="19" viewBox="0 0 23 19" fill="none" xmlns="http://www.w3.org/2000/svg">
<path d="M6.57761e-07 1.97913C6.57761e-07 0.886649 0.920047 0 2.05203 0H2.8735C4.00713 0 4.92389 0.886649 4.92389 1.97913V17.0126C4.92389 18.1051 4.00549 18.9917 2.8735 18.9917H2.05203C1.78234 18.9915 1.51533 18.9401 1.26625 18.8405C1.01717 18.7408 0.790895 18.5948 0.600346 18.4109C0.409797 18.227 0.258706 18.0087 0.155699 17.7685C0.052691 17.5283 -0.000215183 17.2709 6.57761e-07 17.011V1.97754V1.97913ZM2.05203 1.5833C1.9431 1.5833 1.83863 1.62501 1.7616 1.69924C1.68457 1.77347 1.6413 1.87415 1.6413 1.97913V17.0126C1.6413 17.2311 1.82531 17.4084 2.05203 17.4084H2.8735C2.98244 17.4084 3.08691 17.3667 3.16394 17.2925C3.24096 17.2182 3.28424 17.1176 3.28424 17.0126V1.97754C3.28424 1.87257 3.24096 1.77189 3.16394 1.69765C3.08691 1.62342 2.98244 1.58172 2.8735 1.58172H2.05203V1.5833ZM6.56683 1.97913C6.56683 0.886649 7.48524 0 8.61887 0H9.44034C10.5723 0 11.4907 0.886649 11.4907 1.97913V17.0126C11.4907 18.1051 10.5707 18.9917 9.43869 18.9917H8.61722C8.07312 18.9909 7.55161 18.782 7.16718 18.4109C6.78275 18.0399 6.56683 17.5369 6.56683 17.0126V1.97754V1.97913ZM8.61887 1.5833C8.50993 1.5833 8.40546 1.62501 8.32843 1.69924C8.25141 1.77347 8.20813 1.87415 8.20813 1.97913V17.0126C8.20813 17.2311 8.39214 17.4084 8.61887 17.4084H9.44034C9.54899 17.408 9.65304 17.3661 9.72971 17.2919C9.80638 17.2177 9.84943 17.1173 9.84943 17.0126V1.97754C9.84943 1.87257 9.80615 1.77189 9.72913 1.69765C9.6521 1.62342 9.54763 1.58172 9.43869 1.58172H8.61722L8.61887 1.5833ZM18.0263 4.39683C17.8294 3.92522 17.4515 3.54482 16.9712 3.33461C16.4909 3.12439 15.945 3.10052 15.4469 3.26794L14.4891 3.59093C14.2274 3.67945 13.9871 3.81812 13.7826 3.99858C13.5781 4.17904 13.4136 4.39754 13.299 4.64092C13.1845 4.8843 13.1223 5.14751 13.1162 5.41468C13.1101 5.68186 13.1602 5.94745 13.2635 6.19546L18.0888 17.7599C18.4979 18.7416 19.6331 19.2371 20.6698 18.8888L21.626 18.5658C21.8879 18.4773 22.1284 18.3386 22.3331 18.158C22.5377 17.9774 22.7023 17.7588 22.8169 17.5152C22.9314 17.2716 22.9935 17.0082 22.9995 16.7409C23.0055 16.4735 22.9552 16.2078 22.8517 15.9597L18.0263 4.39683ZM15.9891 4.76099C16.0886 4.72809 16.1974 4.73324 16.2931 4.77536C16.3887 4.81749 16.464 4.89338 16.5033 4.9874L21.3287 16.5503C21.3496 16.5999 21.3598 16.6532 21.3587 16.7068C21.3577 16.7604 21.3453 16.8132 21.3224 16.8621C21.2995 16.9109 21.2666 16.9548 21.2256 16.991C21.1846 17.0272 21.1364 17.055 21.0839 17.0728L20.1277 17.3942C20.0282 17.4276 19.9191 17.4229 19.8231 17.3811C19.7271 17.3392 19.6514 17.2634 19.6118 17.1693L14.7865 5.60489C14.7658 5.55531 14.7558 5.50221 14.757 5.44879C14.7582 5.39537 14.7706 5.34274 14.7935 5.29407C14.8163 5.24539 14.8492 5.20169 14.8901 5.16558C14.9309 5.12948 14.979 5.10172 15.0313 5.08398L15.9875 4.76099H15.9891Z" fill="white" fill-opacity="0.9"/>
</svg>
