<svg width="21" height="21" viewBox="0 0 21 21" fill="none" xmlns="http://www.w3.org/2000/svg">
<path d="M10.5 0C9.34628 0 8.21846 0.324113 7.25917 0.931352C6.29989 1.53859 5.55221 2.40168 5.1107 3.41149C4.66919 4.42129 4.55367 5.53245 4.77875 6.60445C5.00383 7.67645 5.5594 8.66114 6.37521 9.43401C7.19102 10.2069 8.23042 10.7332 9.36197 10.9464C10.4935 11.1597 11.6664 11.0502 12.7323 10.632C13.7982 10.2137 14.7093 9.50537 15.3502 8.59657C15.9912 7.68777 16.3333 6.61932 16.3333 5.52632C16.3333 4.06065 15.7188 2.65501 14.6248 1.61862C13.5308 0.582235 12.0471 0 10.5 0ZM10.5 8.8421C9.80777 8.8421 9.13108 8.64764 8.5555 8.28329C7.97993 7.91895 7.53133 7.40109 7.26642 6.79521C7.00151 6.18933 6.9322 5.52264 7.06725 4.87944C7.2023 4.23624 7.53564 3.64542 8.02513 3.1817C8.51461 2.71798 9.13825 2.40218 9.81718 2.27424C10.4961 2.1463 11.1999 2.21196 11.8394 2.46293C12.4789 2.71389 13.0256 3.13888 13.4101 3.68416C13.7947 4.22944 14 4.87051 14 5.52632C14 6.40572 13.6313 7.2491 12.9749 7.87093C12.3185 8.49276 11.4283 8.8421 10.5 8.8421ZM21 21V19.8947C21 17.8428 20.1396 15.8749 18.608 14.424C17.0765 12.973 14.9993 12.1579 12.8333 12.1579H8.16667C6.00073 12.1579 3.92351 12.973 2.39196 14.424C0.860414 15.8749 0 17.8428 0 19.8947V21H2.33333V19.8947C2.33333 18.4291 2.94791 17.0234 4.04188 15.987C5.13584 14.9507 6.61957 14.3684 8.16667 14.3684H12.8333C14.3804 14.3684 15.8642 14.9507 16.9581 15.987C18.0521 17.0234 18.6667 18.4291 18.6667 19.8947V21H21Z" fill="white" fill-opacity="0.9"/>
</svg>
