<svg width="23" height="22" viewBox="0 0 23 22" fill="none" xmlns="http://www.w3.org/2000/svg">
<path d="M11.5 20.9169V11.5419M11.5 20.9169L8.89584 18.8335M11.5 20.9169L14.1042 18.8335M4.24376 7.49707C3.25856 7.74498 2.3978 8.34411 1.82319 9.1819C1.24858 10.0197 0.99968 11.0385 1.12325 12.0468C1.24681 13.0552 1.73435 13.9838 2.49425 14.658C3.25414 15.3323 4.2341 15.7058 5.25001 15.7085H6.29168" stroke="white" stroke-width="2" stroke-linecap="round" stroke-linejoin="round"/>
<path d="M15.4895 5.43553C15.1335 4.02571 14.2547 2.80401 13.0313 2.01809C11.8079 1.23217 10.3315 0.940832 8.90125 1.20314C7.47102 1.46544 6.19404 2.26176 5.32917 3.43067C4.4643 4.59958 4.07626 6.05362 4.24369 7.49803C4.24369 7.49803 4.40307 8.41678 4.72911 8.93761" stroke="white" stroke-width="2" stroke-linecap="round" stroke-linejoin="round"/>
<path d="M16.7084 15.7084C17.4439 15.7079 18.1709 15.5517 18.8416 15.2499C19.5123 14.9482 20.1115 14.5079 20.5998 13.9579C21.0881 13.4079 21.4543 12.7607 21.6744 12.059C21.8946 11.3572 21.9636 10.6168 21.8769 9.88648C21.7903 9.15615 21.5499 8.45244 21.1717 7.82168C20.7935 7.19093 20.286 6.64742 19.6826 6.22694C19.0792 5.80646 18.3936 5.51854 17.6709 5.38212C16.9482 5.24571 16.2048 5.2639 15.4897 5.4355L14.1042 5.81258" stroke="white" stroke-width="2" stroke-linecap="round" stroke-linejoin="round"/>
</svg>
