<svg width="24" height="24" viewBox="0 0 24 24" fill="none" xmlns="http://www.w3.org/2000/svg">
<path d="M21.548 7.83695L18.875 10.51C18.6875 10.6976 18.4331 10.8031 18.1679 10.8032C17.9026 10.8033 17.6481 10.698 17.4605 10.5105C17.2729 10.3229 17.1674 10.0686 17.1673 9.80331C17.1672 9.53804 17.2725 9.2836 17.46 9.09595L18.556 7.99995H17.1C15.9175 7.99996 14.7701 8.40144 13.8456 9.13866C12.9211 9.87588 12.2742 10.9052 12.011 12.058C12.3038 13.1863 12.9628 14.1856 13.8847 14.899C14.8066 15.6124 15.9393 15.9997 17.105 16H18.607L17.46 14.853C17.2725 14.6653 17.1672 14.4109 17.1673 14.1456C17.1674 13.8803 17.2729 13.626 17.4605 13.4385C17.6481 13.2509 17.9026 13.1457 18.1679 13.1458C18.4331 13.1458 18.6875 13.2513 18.875 13.439L21.703 16.267C21.8552 16.4189 21.9542 16.6161 21.985 16.829C22.0177 17.0212 21.9938 17.2189 21.9163 17.3979C21.8387 17.5768 21.7107 17.7294 21.548 17.837L18.875 20.51C18.6875 20.6976 18.4331 20.8031 18.1679 20.8032C17.9026 20.8032 17.6481 20.698 17.4605 20.5105C17.2729 20.3229 17.1674 20.0686 17.1673 19.8033C17.1672 19.538 17.2725 19.2836 17.46 19.096L18.556 18H17.105C15.8877 18.0001 14.6898 17.6944 13.6215 17.1108C12.5531 16.5271 11.6486 15.6844 10.991 14.66C10.3386 15.6838 9.4385 16.5266 8.37403 17.1104C7.30955 17.6942 6.11505 18.0001 4.901 18H3C2.73478 18 2.48043 17.8946 2.29289 17.7071C2.10536 17.5195 2 17.2652 2 17C2 16.7347 2.10536 16.4804 2.29289 16.2928C2.48043 16.1053 2.73478 16 3 16H4.901C6.06203 16 7.18995 15.6131 8.10638 14.9002C9.0228 14.1873 9.67541 13.1893 9.961 12.064C9.69048 10.9077 9.0369 9.87696 8.10647 9.13915C7.17605 8.40134 6.02346 7.99987 4.836 7.99995H3C2.73478 7.99995 2.48043 7.8946 2.29289 7.70706C2.10536 7.51953 2 7.26517 2 6.99995C2 6.73474 2.10536 6.48038 2.29289 6.29285C2.48043 6.10531 2.73478 5.99995 3 5.99995H4.836C6.06262 5.99993 7.26928 6.31052 8.34345 6.90278C9.41762 7.49503 10.3243 8.34965 10.979 9.38695C11.6286 8.34995 12.5312 7.49507 13.6019 6.90261C14.6726 6.31015 15.8763 5.99954 17.1 5.99995H18.608L17.46 4.85295C17.3672 4.76004 17.2935 4.64976 17.2433 4.52839C17.1931 4.40702 17.1673 4.27695 17.1673 4.1456C17.1673 4.01425 17.1933 3.8842 17.2436 3.76287C17.2939 3.64153 17.3676 3.5313 17.4605 3.43845C17.5534 3.34561 17.6637 3.27197 17.7851 3.22175C17.9064 3.17153 18.0365 3.14571 18.1679 3.14575C18.2992 3.1458 18.4293 3.17172 18.5506 3.22202C18.6719 3.27233 18.7822 3.34604 18.875 3.43895L21.703 6.26695C21.8552 6.41892 21.9542 6.61609 21.985 6.82895C22.0177 7.02125 21.9938 7.21891 21.9163 7.39788C21.8387 7.57684 21.7107 7.72939 21.548 7.83695Z" fill="white" fill-opacity="0.65"/>
</svg>
